<svg width="32" height="32" viewBox="0 0 32 32" fill="none" xmlns="http://www.w3.org/2000/svg">
  <!-- Background Circle -->
  <circle cx="16" cy="16" r="16" fill="url(#gradient1)"/>
  
  <!-- Flower Petals -->
  <g transform="rotate(0 16 16)">
    <path d="M16 8C18 8 19.5 9.5 19.5 11.5C19.5 13.5 18 15 16 15C14 15 12.5 13.5 12.5 11.5C12.5 9.5 14 8 16 8Z" fill="white"/>
  </g>
  <g transform="rotate(45 16 16)">
    <path d="M16 8C18 8 19.5 9.5 19.5 11.5C19.5 13.5 18 15 16 15C14 15 12.5 13.5 12.5 11.5C12.5 9.5 14 8 16 8Z" fill="white"/>
  </g>
  <g transform="rotate(90 16 16)">
    <path d="M16 8C18 8 19.5 9.5 19.5 11.5C19.5 13.5 18 15 16 15C14 15 12.5 13.5 12.5 11.5C12.5 9.5 14 8 16 8Z" fill="white"/>
  </g>
  <g transform="rotate(135 16 16)">
    <path d="M16 8C18 8 19.5 9.5 19.5 11.5C19.5 13.5 18 15 16 15C14 15 12.5 13.5 12.5 11.5C12.5 9.5 14 8 16 8Z" fill="white"/>
  </g>
  <g transform="rotate(180 16 16)">
    <path d="M16 8C18 8 19.5 9.5 19.5 11.5C19.5 13.5 18 15 16 15C14 15 12.5 13.5 12.5 11.5C12.5 9.5 14 8 16 8Z" fill="white"/>
  </g>
  <g transform="rotate(225 16 16)">
    <path d="M16 8C18 8 19.5 9.5 19.5 11.5C19.5 13.5 18 15 16 15C14 15 12.5 13.5 12.5 11.5C12.5 9.5 14 8 16 8Z" fill="white"/>
  </g>
  <g transform="rotate(270 16 16)">
    <path d="M16 8C18 8 19.5 9.5 19.5 11.5C19.5 13.5 18 15 16 15C14 15 12.5 13.5 12.5 11.5C12.5 9.5 14 8 16 8Z" fill="white"/>
  </g>
  <g transform="rotate(315 16 16)">
    <path d="M16 8C18 8 19.5 9.5 19.5 11.5C19.5 13.5 18 15 16 15C14 15 12.5 13.5 12.5 11.5C12.5 9.5 14 8 16 8Z" fill="white"/>
  </g>
  
  <!-- Center Circle -->
  <circle cx="16" cy="16" r="4" fill="white"/>
  
  <!-- Star Accent -->
  <path d="M20 12L21.5 13.5L20 15L18.5 13.5L20 12Z" fill="#FCD34D"/>
  
  <!-- Gradients -->
  <defs>
    <linearGradient id="gradient1" x1="0%" y1="0%" x2="100%" y2="100%">
      <stop offset="0%" style="stop-color:#EC4899"/>
      <stop offset="50%" style="stop-color:#F97316"/>
      <stop offset="100%" style="stop-color:#8B5CF6"/>
    </linearGradient>
  </defs>
</svg>


